<?xml version="1.0" encoding="utf-8"?>
<!-- Generator: Adobe Illustrator 24.0.1, SVG Export Plug-In . SVG Version: 6.00 Build 0)  -->
<svg version="1.1" id="Calque_1" xmlns="http://www.w3.org/2000/svg" xmlns:xlink="http://www.w3.org/1999/xlink" x="0px" y="0px"
	 viewBox="0 0 470.43 545.89" style="enable-background:new 0 0 470.43 545.89;" xml:space="preserve">
<style type="text/css">
	.st0{fill:#1C1F2A;}
</style>
<symbol  id="Nouveau_symbole" viewBox="-323.97 -286.15 648.85 572.45">
	<path d="M290.68-96.83"/>
	<path d="M-226.85,271.73c6.58,0.22,14.02-0.43,21.18-4.19c-3.24,13.54-31.51,8.16-31.51,8.16S-233.44,271.51-226.85,271.73z
		 M-191.59,279.08c3.53-0.89,7.43-2.59,11.15-5c2.86-1.86,5.61-4.13,8-6.86c-0.07,0.48-0.16,0.95-0.26,1.4
		c-3.51,15.52-28.2,17.68-28.2,17.68S-197.84,280.66-191.59,279.08z M-144.64,259.47c1.15-2.04,2.31-3.74,3.23-5.36
		c1.42-2.49,2.28-4.81,1.66-7.9c0,0,5.61,10.97,0.44,16.19c-4.82,4.87-7.46,7.61-7.46,7.61s-1.49-1.7-0.5-4.86
		C-146.49,262.95-145.57,261.11-144.64,259.47z M-112.76,227.75c4.56-3.76,8.83-3.59,8.83-3.59c-7.83,6.02-4.83,16.03-7.18,20.78
		s-5.5,5.29-5.5,5.29s-1.81-3.85-1.72-10.99C-118.28,235.68-116.23,230.6-112.76,227.75z M-252.29,260.22
		c2.27,0.31,4.05,0.75,4.05,0.75c-0.05,0.04-0.09,0.07-0.14,0.11c-0.01,0.01-0.02,0.02-0.03,0.02c-2.62,1.96-4.35,3.37-6.14,3.95
		c-1.88,0.61-3.85,0.31-7.02-1.23C-262.89,259.47-256.68,259.62-252.29,260.22z M-305.77-8.54c-7.6-3.52-10.77-14.85-10.77-14.85
		c2.62,0.23,4.3,0.59,5.47,1.11c2.48,1.11,2.7,2.98,4.64,6.1c1.98,3.18,0.37,0.53,7.21,8.43c0.02,0.02,0.04,0.04,0.06,0.07
		c0,0.01,0.01,0.01,0.01,0.02C-301.65-7.25-303.85-7.65-305.77-8.54z M-96.48,239.59l0.45-0.71c0.68-1.08,1.39-2.17,2.12-3.24
		c0.48-0.7,0.95-1.4,1.46-2.07c0.46-0.6,0.91-1.16,1.36-1.68c1.34-1.53,2.69-2.73,4.16-3.68l0.53-0.32
		c4.06-2.45,7.84-2.7,12.68-2.05c-1.87,1.28-5.18,3.72-7.42,6.7l-0.04,0.06c-7.33,12.22-15,10.78-17.29,10
		c0.34-0.53,0.79-1.2,1.17-1.78C-96.96,240.33-96.66,239.88-96.48,239.59z M-278.05,79.71c-3.92,4.98-11.23,8.49-17.51,10.76
		c-1.23,0.41-2.7,0.64-4.21,0.62c-2.9-0.03-6-1-8.1-3.59c-1.76-2.18-5.11-3.88-5.11-3.88s2.9-1.42,6.89-1.23
		c0.84,0.04,4.23,0.4,6.61,0.64c0.95,0.15,2.02,0.3,3.28,0.44c4.92,0.56,9.81-0.58,13.28-1.75
		C-279.97,80.72-278.05,79.71-278.05,79.71z M-304.66,45.47c-1.08-0.47-2.24-1.17-3.32-2.03c-2.07-1.65-3.83-3.92-4.1-6.53
		c-0.23-2.19-1.81-5.01-1.81-5.01s1.84,0.85,4.61,3.2c0.59,0.5,4.1,3.41,10,7.76c5.9,4.36,12.34,6.55,12.34,6.55
		C-292.13,49.93-299.06,47.75-304.66,45.47z M-284.86,171.89c-0.78-7.64-6.81-10.57-12.36-11.43c-1.11-7.41,8.98-4.9,14.3-7.42
		c-6.16-4.52-8.64-6.96-13.71-6.12c8.88-8.88,13.08-3.56,17.53-10.76c-4.07-3.56-12.04-1.25-12.04-1.25s-1.92-2.85,10.03-7.99
		c11.82-5.08,9.95-17.1,22.63-21.28c8.56-2.82,12.38-1.16,12.38-1.16s-2.99-7.21-13.68-7.21c-10.69,0-13.74,3.44-20.85,3.44
		c11.94-14.31,7.97-21.25,24.38-22.73c-8.5-9.23-20.3-2.49-20.3-2.49s-3.57-3.82,0.24-8.05c3.81-4.23,4.48-7,4.48-7
		s-7.95-2.73-13.61-0.59c5.15-6.83,12.17-6.54,12.17-6.54s-4.65-2.41-12.81-10.75c-8.16-8.33-8.66-12.19-8.66-17.42
		c9.18,7.23,17.54,11.99,17.54,11.99s-14.45-16.52-12.07-34.15c25.53,48.82,48.84,35.53,51.91,55.63
		c-12.76-4.81-20.41-0.83-24.28,3.93c27.57,2.33,29.79,31.45,44.19,36.84c-17.83-4.28-20.27,1.9-20.27,1.9
		c-0.22,1.9,16.94,17.41,33.77,17.74c-17.61,7.97-20.78,6.2-20.78,6.2c15.58,16.6,51.9,19.37,51.9,19.37s-18.38,9.86-31.78,9.41
		c13.4,13.29,33.03,13.61,46.03,13.23c13-0.38,18.65,4.71,18.65,4.71s-14.8,4.13-14.8,16.3c24.88-12.75,38.53-7.29,60.1,3.42
		c16.9,8.39,25.6,10.34,28.6,10.79c-2.98-0.28-10.61-0.61-14.17,2.98c-5.67,5.72-7.31,6.52-7.31,6.52s2.31-5.88,0.91-8.18
		c-1.39-2.3-1.4-4.03-1.4-4.03s-6.55,4.78-7.35,9.27s-0.8,4.5-0.8,4.5s-4.86,1.49-5.19-5.19c-0.34-6.68-1.24-9-3.77-10.48
		c0,0-1.77,7.04-7.28,7.91c-5.51,0.87-6.11,9.43-6.11,9.43s-6.52-3.12-7.45-12.65c-6,23.22-14.89,27.36-19.32,35.01
		c-4.43-2.28,3.71-8.95-1.31-11.95c-19.82,22.36-20.19,34.22-20.19,34.22s-4.75-2.77-5-12.28c-0.25-9.52-2.2-11.46-2.2-11.46
		s-1.3,10.64-12.15,18.39c-10.84,7.75-17.97,9.23-17.97,9.23s-0.17-5.44,2.69-8.37c2.86-2.93,0.51-7.37,0.51-7.37
		s-7.16,7.77-25.97,6.53c-18.81-1.24-31.28-10.97-33.61-13.71c3.38-6.13,20.5-0.42,18.3-11.52c0,0-9.58,4.64-21.95-2.89
		c-13.14-8-16.42-9.26-22.55-9.68c0,0,1.26-5.05,6.4-6.98c5.15-1.92,6.1-1.94,7.25-4.98c-9-3.05-28.91-10.3-27.3-33.2
		C-291.56,166.99-290.42,173.19-284.86,171.89z M-66.06,202.47c0.77,0.07,1.24,0.14,1.24,0.14S-65.23,202.59-66.06,202.47z
		 M133.54,229.62c5,8.28,4.17,19.22,4.17,19.22s-0.95-2.89-3.65-5.19c-1.24-1.06-4.76-2.22-6.52-3.69
		c-5.98-5.03-2.07-19.86-2.07-19.86S128.38,221.07,133.54,229.62z M108.32,225.58c4.21,5.9,5.4,13.02,5.4,13.02
		s-0.93-1.75-3.29-3.11c-1.08-0.62-5.28-3.84-6.48-5.13c-7.86-8.49-4.68-13.9-4.68-13.9S102.79,217.69,108.32,225.58z
		 M-297.81,70.02c-1.81-0.36-3.18-0.94-3.48-1.74l-1.04-2.76l2.81-0.89c0.34-0.11,0.8-0.13,1.32-0.1c2.06,0.1,5.19,1.23,6.91,3.25
		c2.16,2.53,4.36,2.01,4.36,2.01C-287.88,71.41-293.43,70.9-297.81,70.02z M214.7,272.27c6.42,0.58,9.49,5.67,9.49,5.67
		s-21.32,1.5-29.09-10.12c-0.84-1.26-1.53-2.67-2.01-4.26c2.51,2.1,6.11,3.79,8.91,5.12C206.34,270.74,210.8,271.91,214.7,272.27z
		 M284.35,246.21c-0.96,0.87-5.06,6.24-10.76,5.2c-1.13-0.21-2.34-0.81-3.82-1.36c-0.24-0.09-0.48-0.18-0.74-0.28
		c0,0,0.81-0.47,2.03-1.08C274.86,246.79,284.39,241,284.35,246.21z M315.75,207.53c-0.98,6.1-6.8,18.83-11.92,18.46
		c-2-0.14-4.28-1.5-4.28-1.5s1.49-1.18,3.17-2.81C306.93,217.63,308.73,216.6,315.75,207.53z M322.26,166.26
		c1.49,4.13,4.11,13.32,1.52,14.94c-1.7,1.06-4.89-0.4-4.89-0.4s0.69-1,1.15-2.66C321.31,173.56,321.61,171.08,322.26,166.26z
		 M252.16,262.79c6.58-0.32,10.93,4.37,10.93,4.37s-28.07,5.77-31.6-7.62c-0.01-0.03-0.02-0.05-0.03-0.08
		c0.02,0.01,0.04,0.02,0.05,0.02C238.72,263.12,245.6,263.11,252.16,262.79z M-10.8,26.14c0.2-5.63-11.72-3.92-11.72-3.92
		s1.98-0.19,5.57-8.37c3.59-8.18,2.57-21.88,2.57-21.88S-7.21,9.94-10.8,26.14z M-20.84,244.94c1.19-0.48,2.45-0.98,3.75-1.5
		c7.13-2.83,15.2-6.04,19.55-9.66c2.22-1.85,3.42-3.69,4.12-4.98c0.74,2.67,1.74,8.01-0.37,12.63c-1.34,2.92-3.73,5.13-7.12,6.59
		c-0.48,0.2-0.97,0.4-1.48,0.57c-3.28,1.12-5.98,1.96-8.14,2.64c-7.8,2.44-10.38,3.25-16.6,8.95c0,0,0,0,0,0
		c-0.49-1.21-1.23-3.03-1.42-5.04c-0.07-0.72-0.07-1.46,0.03-2.21C-28.07,249.52-25.48,246.83-20.84,244.94z M-53.31,236.49
		c10.85-2.23,23.95-10.73,24.26-10.93c-3.17,9.3-23.67,19.25-25.88,22.86C-56.72,247.81-65.04,238.91-53.31,236.49z M50.99,224.15
		c0,0,0.83,6.85,9.49,12.54c12.03,7.9,19.36,3.53,19.36,3.53s-1.43-0.49-5.14-3.03c-1.29-0.88-2.42-2.41-3.33-4.31
		c-1.08-2.25-1.32-4.01-0.7-5.09c0.53-0.92,1.75-1.46,3.6-1.59c4.16-0.31,9.94,3.13,15.85,9.43l0.31,0.33
		c0.19,0.2,0.38,0.4,0.57,0.61l0.26,0.28c1.7,1.91,3.25,4.11,4.63,6.56c-2.01-0.95-5.19-1.92-9.22-1.4
		c-2.16,0.28-4.56,0.97-7.17,2.34c-3.04,1.6-5.88,2.3-8.48,2.42c-4.86,0.23-11.17-1.63-14.08-3.56c-7.75-5.15-8.07-11.96-7.71-14.92
		C49.48,226.24,50.33,224.9,50.99,224.15z M-13.93-73.06c-2.75,0.35-4.06,3.42-7.23,2.19l-0.89-2.93l-1.27-4.16l-0.5-1.64
		c0,0,4.66-8.89,16.69-8.89c6.2,3.58,10.39,7.26,13.26,10.56c1.01,1.16,1.86,2.26,2.56,3.3c3.11,4.6,3.52,7.84,3.52,7.84
		S10.2-75.57-13.93-73.06z M21.54,229.72c0,0,9.38,4.09,9.37,9.91c-0.01,2.79-1.34,5.9-2.6,8.62c-1.4,3.02-2.95,5.55-3.6,6.56
		c-1.21-0.43-4.49-1.59-5.53-4.26c-1.76-4.53,1.49-10.13,2.66-13.44C23.02,233.82,21.54,229.72,21.54,229.72z M153.28,245.12
		c2.18,3.63,8.5,8.98,12.59,14.97c1.75,2.81,0.73,4.83,0.73,4.83s-3.25-2-9.13-5.49c-3.13-1.86-4.93-6.62-5.06-10.07
		C152.27,245.84,153.28,245.12,153.28,245.12z M295.91-71.9c-8.61,6.92-16.22,9.64-16.22,9.64s5.84-2.73,9.24-9.26
		c6.87-13.18,18.36-15.68,18.36-15.68S306.01-80.02,295.91-71.9z M287.96-109.24c1.1,8.57-4.05,19.91-4.06,19.48
		c-0.36-21.28-3.72-30.82-3.72-30.82s-2.46,7.85-6.51,15.3c-7.34,13.52-18.04,23.92-18.04,23.92s4.24-7.56,6.68-15.12
		c3.7-11.47,7.48-26.11,13.47-31.09c6.56-5.46,12.87-6.95,12.87-6.95S285.27-130.29,287.96-109.24z M260.66-139.5
		c-1.38-14.25-6.47-22.98-6.47-22.98s-0.16,11.91-4.98,29.64c0,0.01,0,0.02-0.01,0.02c-0.05,0.16-0.09,0.32-0.13,0.48
		c-0.77,2.73-1.66,5.63-2.74,8.74c-0.01,0.03-0.02,0.06-0.03,0.09c0,0,1.28-11.65,0.07-18.78c-1.34-7.9-1.64-19.98,2.65-25.99
		s11.78-2.97,11.78-2.97s-3.24,4.09-1.5,8.6c1.55,3.33,3.75,8.79,4.02,15.21c0.69,16.09-1.96,25.88-1.96,25.88
		S261.49-130.86,260.66-139.5z M-308.77,150.93c2.7-1.1,3,0.75,3,0.75s-3.9,5.91-4.59,17.16
		C-312.26,162.7-310.88,151.78-308.77,150.93z M-308.25,192.96c0,0,2.18,5.64,3.67,8.51c1.95,3.75,4.48,7.72,4.48,7.72
		s-0.8,0.83-3.48-0.1c-2.29-0.79-3.36-1.41-3.99-4.18C-308.3,201.71-308.4,196.17-308.25,192.96z M311.32-39.37
		c-0.93,2.78-2.05,4.08-2.98,4.72c2.08-8.9,0.62-12.8,0.62-13.22l-3.61,4.04c-3.61,4.04-26.9,22.62-26.9,22.62
		s16.07-14.33,21.32-24.44c4.3-8.27,9.24-12.59,13.11-12.61c0,0-0.29,13.25-1.23,17.62C311.55-40.18,311.44-39.74,311.32-39.37z
		 M309.16,62.63c-3.7-3.19-7.57-4.23-7.57-4.23s2.47-1.33,4.67-3.17c1.63-1.36,5.33,1.92,6.92,4.65c2.11,3.63,1.92,9.44,1.92,9.44
		S313.59,66.46,309.16,62.63z M261.21,51.41c0,0,2.32-5.71-14.82-5.56c2.16-6.33,9.26-5.56,22.87-22.38
		C286.9,1.65,282.36,0.6,291.1-4.86c0,12.45-5.57,29.86-5.57,29.86l8.17,1.31c0,0-0.95,0.94-5.05,4.83
		c-4.11,3.88-12.87,11.62-12.87,15.7c0,4.08,21.43,12.91,21.43,12.91c-16.96-2.62-33.12,5.56-33.12,5.56s-1.35,4.47,7.81,8.43
		c9.16,3.95,14.95,10.53,14.95,10.53c-9.24,0.59-4.04,4.04-19.18,7.9c-15.13,3.86-14.25,11.74-14.25,11.74
		c10.45,0,28.46,13.12,39.58,27.18c0,0-7.1-5.13-9.21-2.22c-1.03,1.43-0.29,3.12,1.27,5.08c2.01,2.53,6.03,4.16,6.73,5.62
		c4.96,10.34,1.52,26.57,1.52,26.57s1.39-2.78,6.89-4.59c3.8,14.25-1.7,23.5-1.7,23.5s2.07,2.55,10.07,0.39
		c-3.27,11.58-7.94,18.9-26.82,25.38c0.79,3.76,10.2,2.2,10.2,2.2c-10.63,17.23-21.49,22.15-41.9,18.77
		c5.07,8.83,15.33,11.53,15.33,11.53s-6.63,5.58-18.01,6.44c-27.19,2.04-25.56-12.74-34.68-10.37c-0.31,7.47,8.81,15.98,8.81,15.98
		s-10.34,2.76-22.71-2.75c-25.12-11.18-23.47-20.69-29.36-30.06c-6.2,9.48-4.56,21.55-4.56,21.55s-8.43-3.3-13.12-15.78
		c-4.53-12.07-5.94-13.66-5.94-13.66c-5.53,5.19-1.53,10.61-6.1,12.46c-6.26-10.2-2.69-15.13-6.03-29.24
		c-1.48,8.59-7.13,11.94-7.13,11.94s0.74-4.16-3.58-10.81c-3.5,5.25-3.51,10.97-3.39,12.96c-0.3-1.67-1.95-5.77-10.77-10.02
		c-11.46-5.51-29.55-5.4-29.55-5.4l24.54-9.08c0,0-2.49-5.62,1.53-9.21c4.02-3.59,11.43-0.58,26.74-3.48
		c15.32-2.9,16.19-14.8,16.19-14.8s11.76,11.55,30.6,12.48c-15.56-7.85-13.58-18.71-14.4-20.32c2.4,1.97,21.49,16.97,47.6,17.69
		c-19.77-10.66-27.95-29.03-27.95-29.03s27.18-0.46,44.63-11.51c-12.97,5.78-34.84-1-34.84-1s23.1-1.54,48.58-23.63
		c-7.72,5.87-26.44,2.59-26.44,2.59s6-4.89,23.12-14.7c17.12-9.8,18.73-22.46,18.73-22.46s-1.54,4.14-6.95,6.72
		c-3.3,1.58-29,3.75-29,3.75s14.34-8.34,22.58-18.65C252.82,51.62,261.21,51.41,261.21,51.41z M233.17-38.86
		c-2.88-6.58,0.75-33.03,0.75-33.03s-0.69,4.17-4.04,8.81c-0.72,1-1.56,2.01-2.55,3.01c-1.23,1.24-2.67,2.46-4.37,3.59
		c-2.99-7.77,2.1-9.5,5.18-29.98c-8.29,11.57-21.72,13.52-21.72,13.52s4.61-8.4,4.26-34.33c-2.42,8.92-13.8,11.37-13.8,11.37
		s-1.94-3.01,6.42-25.15c-29,15.83-49.3,15.28-51.02,14.69c0.44,0.39,1.88,2.03,4.7,3.99c3.43,2.38,8.88,5.21,17.05,6.8
		c-0.43,1.44-0.95,2.78-1.52,4.05c-2.67,5.9-6.73,9.96-10.97,12.74c-8.41,5.53-17.47,6.06-17.47,6.06s21.03,9.54,54.03-15.47
		c-0.51,1.9-1.12,3.7-1.8,5.43c-1.95,5.01-4.51,9.29-7.35,12.95c-10.72,13.83-25.33,18.59-25.33,18.59s10.19,4.53,29.24-9.03
		c-1.48,14.3-4.7,21.76-4.7,21.76s7.79,0.41,25.5-12.39c-2.97,17.18-8.25,26.23-15.87,31.51c13.08,2.97,22.53-5.58,22.53-5.58
		s-0.74,10.04-13.3,26.04c-12.57,16-11.69,20.74-11.69,20.74s-0.4,1.64,6.39,1.05c6.79-0.59,10.73-6.88,10.73-6.88
		s0.19,4.29-11.02,23.28c-17.2,29.13-24.76,22.78-38.95,36.46c0-13.71,4.38-9.45,5.5-27.4c1.11-17.95-3.26-22.43-3.26-22.43
		s-1.54,14.1-11.37,14.88c0.35-5.56,1.56-49.81-29.9-55.15c2.34,16.8-3.38,29.39-3.38,29.39s8.56-1.2,21.99,14.79
		c-6.36,27.46-33.95,32.62-33.95,32.62s0.95,5.54,13.69,8.46c-22.78,19.67-46.21,4.74-46.21,4.74s-1.88,2.75,4.63,11.19
		c-20.81-4.71-28.18-20.54-28.18-20.54s-5.21,3.69-6.25,10.23C41.66,76,34.43,59.53,31.38,45.66c-3.06-13.86,4.98-16.26,1.77-17.2
		c-3.21-0.94-2.85,4.33-7.54,6.29c-4.7,1.95-9.48-1.95-11.84-15.07C11.4,6.56,16.76,1.5,19.49,1.1c2.72-0.4,4.41,3.63,7.72,4.17
		c3.3,0.54,3.15-1.11,3.15-3.51c0-2.39,11.34-7.06,11.34-7.06s-3.54-9.29-4.97-16.3c-1.43-7,0.22-12.94,5.39-8.36
		c5.17,4.58,7.09,1.92,7.09,1.92s-2.49-2.49-0.77-5.13c1.72-2.64,4.9-5.5,6.1-17.05c1.19-11.55,3.83-15.17,13.63-24.86
		c0.41-0.4,0.79-0.8,1.19-1.2c6.29-6.31,11.91-12.68,15.87-17.46c1.57-1.89,2.86-3.51,3.83-4.79c0.2-0.26,0.44-0.57,0.61-0.8
		c0.38-0.52,0.75-1.08,1.12-1.65c0.49-0.75,0.96-1.53,1.4-2.33c2.57-4.57,4.41-9.41,4.41-9.41s-0.93,2.56-6.99,6.85
		c-6.05,4.29-8.53,2.6-8.53,2.6s-0.44-1.22,0.39-5.54c0.21-1.11,0.49-2.37,0.9-3.92c0.64-2.44,1.64-4.24,2.75-6.31
		c1.72-3.2,3.74-7.03,5.23-14.81c0.13-0.68,0.25-1.44,0.37-2.19c0.4-2.47,0.76-5.25,1.04-8.51c-2.03,4.71-9.05,7.55-15.71,9.18
		c-0.4-0.79-0.61-1.57-0.69-2.38c-0.13-1.43,0.2-3,0.84-4.97c0.36-1.11,0.82-2.34,1.36-3.76c2.04-5.4,1.49-12.63,1.49-12.63
		s-1.21,3.65-10.38,8.52c-0.86-1.64-1.1-2.97-1.11-4.49c-0.01-0.61,0.02-1.26,0.07-1.96c0.13-1.83,0.38-4.08,0.35-7.38
		c-0.06-7.75-3.04-12.55-3.04-12.55s-2.75,7.28-7.6,6.42c-2.76-0.49-4.64-1.3-4.31-4.4c0.33-3.1-2.98-7.84-2.98-7.84
		s0.03,2.67-6.16,2.2c-6.19-0.47-5.47-6.47-10.17-8.3c-4.7-1.84-6.27,1.35-9.47,2.52c-3.2,1.17-6.54-1.91-6.54-1.91
		s-0.96,2.63-4.38,7.88c-3.42,5.25-7.09,3.81-10.43,3.43c0,2.5,1.93,2.75,4.53,4.79c1.45,1.14,3.1,2.82,4.76,5.77
		c2.61,4.66,4.13,12.6,4.13,12.6s8.68-1.81,14.53-0.48c5.85,1.33,8.04,3.24,9.93,7.55c1.89,4.31,4.25,8.7,9.16,17.64
		s7.54,16.91,6.98,23.41c-0.56,6.5,0.58,6.79,0.44,12.82c-0.04,1.68-0.23,2.81-0.71,3.76c-1.25,2.46-4.53,3.67-12.81,9.71
		c-2.69,1.96-4.76,3.21-6.38,3.99c-4.61,2.23-5.43,0.61-5.57,0.15c-0.02-0.07-0.03-0.11-0.03-0.11s0.78-0.98,1.93-2.53
		c2.83-3.8,7.91-11.02,9.49-15.84c0.24-0.72,0.42-1.41,0.48-2c0.6-6.15-2.48-6.51-2.48-6.51s-2.26,6.22-17.31,6.22
		c-15.05,0-16.69-7.29-28.61-6.79c-11.92,0.5-6.53,6-19.38,7.88c-5.28,0.77-19.96-2.68-22.85-3.74c-2.89-1.06-4.9-2.89-5.33,0.39
		c-0.19,1.48-0.22,2.75,0.12,4.13c0.42,1.67,1.39,3.52,3.41,6.17c3.7,4.84,3.79,6.68,7.2,7.91c2.11,0.76,3.57,1.49,4.61,2.12
		c1.87,1.14,2.31,1.95,2.31,1.95s-3.21,0.81-7.36,0.47c-4.15-0.34-5.74-0.77-10.88-0.32c-5.13,0.45-7.9-5.81-13.08-15.9
		c-2.79-5.43-5.23-7.76-6.48-9.95c-1.07-1.88-1.25-3.67,0.06-7.21c2.82-7.68,4.05-26.06,10.81-31.55c6.76-5.49,4.91-6.18,9.26-10.53
		c2.89-2.89,6.78,1.48,10.04-0.01c6.08-2.77,2.79-7.76,6.38-11.35c2.88-2.88,8.21-5.3,10.29-11.1c0.51-1.41,0.88-2.97,0.91-4.85
		c-4.28,0.16-6.5,4.86-10.38,4.75c-3.87-0.11-2.77-5.2-8.67-9.2c-5.9-4-8.27-1.35-8.67,1.47c-0.63,4.46-12.43,6.62-23.08,0.8
		c-6.35,18.5-10.74,17.02-10.74,17.02s-2.84,2.12-7.02-15.44c-1.97,3.4-1.72,9.15-0.84,20.65c-3.11,0.32-4.92-0.32-10.99-11.72
		c0.07,4.74,0.11,9.15,0.34,13.42c0.46,8.49,1.74,16.4,6.02,25.08c0,0-0.26,0.56-0.68,1.32c-0.92,1.69-2.68,4.49-4.71,5.38
		c-2.95,1.29-3.1-4.37-10.17-5.19c0.47,1.38,0.92,2.68,1.36,3.95c10.99,31.6,13.84,30.88,21.78,43.11c0.99,1.53,1.82,2.88,2.54,4.1
		c1.53,2.63,2.5,4.69,3.29,6.74c1.89,4.91,2.73,9.81,7.79,22.6c-5.89,1.43-14.49,12.83-14.49,12.83s3.99-2.59,9.3-0.67
		c5.31,1.92,5.63,5.33,5.63,5.33s1.6,1.61,16.58,5.82c2.72-1.54-0.36-5.42,4.53-12.6c10.95,12.29,8.4,20.04,14.65,34.88
		c4.63-0.82,11.29-5.12,11.29-5.12s3.5-0.43,3.3,24.97c-0.31,39.34-10.35,49.63-11.39,49.63c-1.03,0,1.03-5.17-3.32-4.8
		c-4.35,0.36-3.11,1.37-9.31,9.62c-6.19,8.25-10.55,9.36-17.07,12.61c-6.51,3.24-6.19,4.43-6.19,4.43s-1.77-4.43,1.86-8.39
		c3.63-3.96,1.24-5.67,1.24-5.67s-7.53,5.64-25.54,5.05c-18.01-0.6-12.99-3.24-18.16-4.09c1.98-3,13.46-5.38,12.45-7.48
		c-1.01-2.1-4.37,0.83-19.34-7.63c-14.96-8.46-22.06-25.39-19.55-27.04c2.51-1.65,4.93-3.15,6.82-5.46c1.89-2.31,7.8,5.47,7.8,5.47
		s-4.72-7.95-2.59-12.51c2.14-4.56,8.35-2.91,14.4-4.01c-6.94-7.41-1.2-24.97-1.2-24.97s-7.66,7.55-9.33,20.25
		c-3.86-5.49-9.52-5.63-9.52-5.63s-1.94,2.56,0,5.59c2.07,3.22-0.02,8.03-0.98,8.99c-2.03,2.03-5.41,2.68-20.35,0.44
		c-5.05-8.63-3.3-22.88-3.3-22.88s-9.96,3.45-13.72,19.93c-5.92,25.96,9.33,41.07,9.33,41.07s-2.06,4.5-8.36,4.22
		c-10.93-0.49-16.85-15.26-30.25-19.99c-13.4-4.73-19.75,0.31-19.75,0.31s-3.32-1.64,0.55-8.74c6.28-11.51,18.05-10.41,18.52-10.36
		c-0.42-0.05-3.97-0.83-15.28-12.8c-12.1-12.81-6.19-25.86-6.19-25.86s3.01,1.57,4.81,4c3.71,5.02,10.18,3.73,10.18,3.73
		s-1.7-3.36-6.47-13.02c-4.76-9.66-10.79-17.37-10.79-19.16s1.72-2.93,12.25,2.29c-4.75-10.06-4.55-14.15-1.22-19.43
		c5.4,7.42,14.11,16.45,27.69,18.67c-10.93-7.24-13.95-16.05-13.95-23.6c0,0,3.62,2.97,17.63,7.08c17.13,5.02,23.32-2.33,23.32-2.33
		s-6.64-1.77-16.42-7.05c-3.56-1.92-6.54-3.87-9.09-5.77c-7.2-5.37-10.71-10.39-12.36-13.58c-1.13-2.18-1.42-3.52-1.42-3.52
		s3.7,1.46,12.42,1.92c18.54,0.98,27.12-4.08,30.95-8c2.3-2.36,2.88-4.31,2.88-4.31s-31.18,7.53-55.86-34.12
		c-1,5.7-2.21,12.22,0.89,20.46c1.55,4.12,4.14,8.66,8.41,13.76c-0.6,0.23-1.19,0.41-1.78,0.58c-8.05,2.21-16.11-1.49-30.82-14.47
		c-0.81,3.9-0.85,7.69-0.42,11.29c0.01,0.05,0.01,0.1,0.01,0.14c0.02,0.25,0.06,0.51,0.09,0.76c1.8,12.42,9.43,22.42,12.98,26.5
		c1.12,1.28,1.84,1.99,1.84,1.99s-10.97,2.2-26.45-8.92c-0.53,8.14,0.36,11.62,3.8,18.25c1.22,2.35,2.75,5.09,4.66,8.6
		c-0.27,0-0.55-0.06-0.82-0.09c-6.87-0.54-13.34-7.56-17.53-13.33c-0.65-0.9-1.27-1.77-1.8-2.58c-1.88-2.84-2.99-4.92-2.99-4.92
		s-2.15,8.69,0.5,23.51c0.64,3.59,1.57,7.53,2.87,11.8c0.32,1.04,0.63,2.07,0.99,3.15c-7.21-7.21-11.33-14.33-13.67-21.47
		c-0.05-0.19-0.12-0.39-0.17-0.58c0-0.01,0-0.02-0.01-0.03c-3.39-10.83-2.76-21.72-2.37-33.1c0.62,1.16,1.31,2.13,2.02,3
		c1.26,1.53,2.62,2.65,3.94,3.46c3.51,2.15,6.68,2.15,6.68,2.15s-4.47-16.51-2.68-31.27c0.84,1.4,1.97,2.59,3.21,3.61
		c0.29,0.24,0.58,0.47,0.88,0.69c4.53,3.28,10.14,4.4,10.14,4.4s-7.59-21.16,1.66-47.39c0.18,1.27,0.57,2.6,1.11,3.93
		c2.34,5.76,7.82,11.46,14.4,11.6c2.69,0.06,5.55-0.81,8.46-2.99c-0.87-25.18,4.63-39.42,8.16-45.87c0.79-1.65,1.77-3.06,2.77-4.28
		c-1.65-4.53-2.05-11.52-2.12-16.16c-0.17-6.75,0-10.06,0.06-10.92c-3.33,3.72-7.21,11.82-8.26,15.75
		c-2.91,10.95-1.11,18.41-1.11,18.41s-4.07-1.13-7.5-9.9c-1.84-4.7,0.06-13.65,3.73-21.16c2.38-4.88,7.62-5.78,7.74-12.34
		c0,0,4.93,1.34,6.85,3.74c3.14-1.76,8.94-5.42,15.02-11.43c0.01-0.01,0.02-0.02,0.04-0.04c4.72-4.86,9.24-7.98,10.54-8.15
		c1.4,5.82,7.9,0.77,7.18,7.01c0.83-7.2,5.13-10.82,9.62-12.96c0,0,2.29,3.37,0.62,10.96l0.06-0.02c2.52-9.13,7-7.61,13.58-13.53
		c0,0,1.27,6.33,1.37,9.36l0.06-0.02c0.47-9.8,6.93-8.09,10.7-12.9c-0.34,3.11-0.46,5.78-0.36,8.21
		c6.64-9.26,17.32-12.2,28.63-19.75c-1.35,7.35,4.87,7.3,3.4,10.24c13.25-15.55,18.18-17.75,31.57-19.31
		c-0.41,1.53-1.83,8.2-2.47,11.09c1.73-5.47,8.45-9.16,8.46-7.36c0.03,5.39,4.42,6.85,7.85,6.91c0.7-5.6,3.04-11.41,7.64-15.24
		c0.31,0.2,3.85,14.53,15.33,13.26c-0.08-4.64-0.27-12.51-0.27-12.51c9.52-3.3,11.76,10.11,17.56,8.73
		c-1.01-7.68,3.82-17,9.28-17.52c0.87,7.14,3.05,11.92,8.91,17.52c5.93-2.11,7.3-8.07,8.66-11.87c6.74,1.92,11.65,8.58,10.29,12.92
		c6.72-1.45,8.98-13.77,7.91-16.94c0,0,9.83,5.64,8.4,13.8c3.85-2.22,5.13-8.16,5.13-8.16c7.53,5.44,5.09,8.39,5.66,13.66
		c4.03-1.55,9.1-9.77,10.92-13.66c2.36,4.73,9.24,17.8,14.61,19.12c7.28-3.72,2.53-12.85,2.53-12.85s9.75,0.12,17.41,8.73
		c1.24,1.4,2.12,3.4,2.75,5.75c4.15-5.19,11.29-8.77,11.29-8.77s4.91,6.17,10.88,9.2c6.76,3.43,14.63,3.49,13.65-1.99
		c10.29,1.58,13.19,6.45,14.31,9.91c0.63-1.83,2.23-3.98,5.93-5.76c4.78-2.31,10.72-1.34,10.72-1.34s-7.43,10.62,2.64,23.03
		c0,0,0,0,0,0c2.08-3.71,5.53-9.47,5.85-11.84c0,0,12.68,8.72,9.51,20.82c2.31,0.93,7.69-5.16,8.48-12.83
		c7.84,4.38,16.18,12.05,18.19,17.08c4.25-7.33,15.24-1.89,15.24-1.89s-3.59,2.28-2.19,5.46c0,0,19.96,14.52,12.35,34.69
		c-0.4,1.05-0.85,2.2-1.43,3.44c-0.19,0.41-0.36,0.79-0.57,1.21c-0.49,0.96-1.03,1.95-1.65,2.99c-0.28-2.01-0.69-4.04-1.15-6.05
		c-1.51-6.59-3.85-13.06-6.23-18.63c-1.1-2.57-2.2-4.93-3.23-7.03c-1.65-3.36-3.09-6.01-4.01-7.63c-0.66-1.16-1.07-1.84-1.07-1.84
		s0.2,0.93,0.38,2.45c0.21,1.74,0.36,4.28,0.14,7.25c-0.33,4.53-1.57,9.99-4.9,15.05c-1.5,2.28-3.4,4.48-5.88,6.45
		c0,1.79,0.02,3.39,0.04,4.83c0.17,9.14,0.8,11.57,0.8,11.57s3.1-0.51,7.9-7.74c1.1-1.66,2.28-3.67,3.54-6.1
		c1.25,3.22,2.11,5.73,2.66,8.84c0.99,5.57,0.98,13.06,0.28,30.06c1.93-0.39,3.98-1.93,5.94-3.9c2.5-2.52,4.82-5.74,6.51-8.33
		c1.62-2.49,2.66-4.37,2.66-4.37c2.69,7.66,6.9,22.05,4.65,43.98c-1.4,13.7-5.49,21.59-5.49,21.59c8.02,0,13.97-10.9,13.97-10.9
		s12.27,36.31-4.69,66.39C233.18-38.8,233.18-38.83,233.17-38.86z M-89.27,27.5c1.41,1.09,3.31,1.96,5.36,2.38
		c1.16-5.02,1.44-5.24,1.59-8.72c-2.17-0.87-4.29-2.19-6.69-2.91C-86.98,21.74-91.41,23.97-89.27,27.5z M-95.8,29.06
		c-3.85-5.2-7.55-24.5,11.59-27.68c21.63-3.6,23.94,18.51,23.94,18.51s6.36-3.86,8.84-12.79c0,0-16.03-15.99-35.98-13.02
		c-19.95,2.97-23.34,24.16-23.34,24.16S-103.86,29.88-95.8,29.06z M-147.9-154.56c-0.85-5.41-12.2-8.97-15.31-5.21
		C-164.83-148.75-154.2-156.3-147.9-154.56z M-181.55-117.49c5.66,6.75,16.78,12.45,19.52,12.91c5.72,0.95,6.65-0.84,6.65-0.84
		c-2.03-0.74-2.72-2.26-3.39-3.82c-4.01-9.34-25.99-21.34-30.25-21.57C-187.39-125.89-184.82-121.38-181.55-117.49z M-180.25-228.25
		c-0.94,1.7-1.71,3.78-1.99,6.41c-0.94-2.48-2.43-3.99-3.82-4.9c-1.46-0.96-2.8-1.25-3.24-1.25c-0.81,0-10.82,2.39-15.9,13.37
		c-0.86,1.87-1.44,3.63-1.82,5.3c-0.72,3.64-0.65,6.58-0.31,8.78c0.52,3.04,1.53,4.83,1.53,4.83c-0.16-1.22-0.16-1.79,0.04-2.6
		c0.38-1.51,3.58-1.76,4.05-7.61c5.39,15.5,11.84,12.53,14,10.87c0.49-0.38,0.77-0.68,0.77-0.68s-0.98-1.89-1.68-5.36
		c-0.92-4.57-1.36-11.9,1.55-21.35c3.55,4.56,2.86,5.64,3.19,8.16c0.14,1.11,0.47,2.48,1.49,4.6c0.14,0.29,0.28,0.5,0.42,0.77
		c3.2,6.14,6.53,6.96,6.53,6.96s-0.41-4.43-1.61-15.09c-0.45-4.01-0.17-7.43,0.35-10.13c0.87-4.49,2.4-7.01,2.4-7.01
		S-177.85-232.58-180.25-228.25z M-180.86-147.02c-1.58,3.33,0.74,7.71,3.13,10.32c2.38,2.62,16.14,14.17,24.6,16.46
		c-4.68-7.07-7.18-4.47-11.12-15.78C-168.18-147.33-180.86-147.02-180.86-147.02z M-146.83-236.23c-0.07-0.61-0.12-1.24-0.17-1.89
		c-0.09-1.14-0.15-2.35-0.17-3.61c-0.01-0.47-0.03-0.91-0.03-1.39c-0.8,0.71-1.47,1.36-2.1,1.99c-6.4,6.46-4.1,8.85-7.06,13.39
		c0-5.97-2.94-3.85-3.39-10.48c-0.04-0.55-0.06-1.15-0.06-1.83c-0.76,0.81-1.39,1.6-1.93,2.39c-2.29,3.37-2.59,6.64-1.89,10.67
		c0.44,2.54,1.25,5.36,2.28,8.75c0.57,1.88,0.85,3.47,1.03,4.92c0.25,2.09,0.2,3.76-0.03,5.04c-0.32,1.82-0.89,2.9-1.22,3.37
		c-0.13,0.19-0.24,0.32-0.24,0.32s0.11-0.05,0.17-0.09c0.87-0.43,7.05-3.75,7.33-11.19c0.31-8,3.98-8.88,3.98-8.88
		s0.52,2.95,2.89,5.67c2.58,2.96,4.39,2.91,5.55,2.15c1.12-0.74,1.64-2.14,1.64-2.14S-145.4-223.32-146.83-236.23z M-119.32-249.49
		c-2.19,1.33-4.8,2.13-8.49,2.62c-6.26,0.84-9.08,5.12-10.36,8.59c-0.94,2.55-1.05,4.67-1.05,4.67s1.23-1.77,4.51-2.03
		c0.39-0.03,0.79-0.05,1.24-0.03c1.31,0.05,2.44-0.61,3.42-1.52c2.18-2.03,3.47-5.37,3.47-5.37s0.37,3.3,1.12,8.36
		c0.17,1.15,0.62,1.97,1.19,2.62c1.94,2.19,5.43,1.89,5.43,1.89s-4.23-8.84-0.99-13.83c1.92-2.96,2.75-5.28,3.12-6.71
		c0.25-0.98,0.3-1.55,0.3-1.55C-117.3-250.84-118.28-250.12-119.32-249.49z M-87.72-253.76c-1.04-1.1-1.54-2.05-1.79-2.87
		c-0.55-1.85,0.38-2.91,0.38-2.91s-7.54,0.48-12.13,5.01c-0.65,0.64-1.24,1.36-1.74,2.18c-3.82,6.18-2.46,10.47-0.58,13.02
		c1.41,1.92,3.12,2.86,3.12,2.86c0.86-0.55,1.51-1.13,2.03-1.73c1.35-1.58,1.66-3.34,1.88-5.34c0.31-2.76,0.5-5.97,3.05-9.81
		c0.16-0.24,0.31-0.48,0.49-0.73c0.03,0.21,0.12,0.37,0.17,0.58c0.96,4.41,4.47,6.38,6.69,7.18c1.06,0.38,1.85,0.53,1.85,0.53
		S-84.31-250.14-87.72-253.76z M45.37-207c-0.07-0.01-0.13-0.02-0.13-0.02s0-3.16,1.04-6.39c0.62-1.92,1.6-3.86,3.17-5.17
		c-11.94,4.3-9.23,4.52-14.4,4.3c-1.44-1.4-2.15-3.01-2.37-4.68c-0.16-1.16-0.09-2.36,0.15-3.55c0.36-1.78,1.07-3.54,1.87-5.1
		c-6.9,2.84-9.39,6.52-9.39,6.52s2.72-6.8,0.26-12.61c-4.22,8.36-8.83,5.58-8.83,5.58s2.63-8.44-1.91-11.22
		c-1.08,5.72-3.25,4.83-3.25,4.83l-2.36-2.47c0,0-1.03,4.3-4.56,6.19c-6.69-4.53-3.67-8.03-9.5-8.03c-3.8,11.44-5.55,9.62-5.55,9.62
		s-4.42-1.97-5.47-13.68c-6.67,8.11-4.29,13.32-3.85,14.12c0.04,0.07,0.07,0.12,0.07,0.12s-0.06-0.01-0.08-0.01
		c-0.42-0.04-4.35-0.59-5.33-7.19c-2.17,5.54-0.36,7.16-2.32,9.13c-1.96,1.96-8.6-2.41-8.6-9c-6.87,3.83-5.43,8.71-4.81,10.14
		c0.11,0.26,0.2,0.43,0.2,0.43s-0.17,0.09-0.4,0.21c-1.14,0.57-4.86,2.04-10.24,0.16c-6.49-2.28-10.17-5.23-10.17-5.23
		s-0.02,2.22,0.44,4.94c0.47,2.75,1.45,6.02,3.47,8.04c2.87,2.87,2.92,4.13,0.42,4.66c-1,0.21-2.38,0.33-4.21,0.36
		c-6.41,0.11-10.74,0.16-10.74,0.16s2.7,1.28,3.14,4.38c0.01,0.04,0.02,0.07,0.03,0.11c0.16,1.32-0.36,2.06-1.01,2.82
		c-0.93,1.09-2.15,2.25-2.15,5.23c0,0,1.65-0.9,3.59-2.25c0.72-0.5,1.48-1.06,2.22-1.67c2.7-2.24,4.99-5.02,12.53-3.34
		c8.22,1.83,12.5,1.11,12.68-2.4c0.16-3.25,2.89-3.01,8.13-3.2c3.34-0.12,8.76-1.2,11.8-0.89c6.83,0.7,12.56,3.03,15.42,2.59
		c5.79-0.88,5.71-7.57,11.15-3.38c8.42,6.49,15.52,6.22,22.8,5.09c7.28-1.13,7.49-0.21,7.49-0.21s-2.28,4.6,4.99,5.15
		c1.56,0.12,2.81,0.32,3.87,0.56c1.16,0.26,2.05,0.55,2.72,0.85c1.59,0.71,2.05,1.4,2.05,1.4s0.67-0.41,1.42-1.1
		c1.02-0.94,2.21-2.41,2.17-4.24C48.98-206.36,45.96-206.89,45.37-207z M80.98-256.18c-0.13-0.23-0.27-0.42-0.4-0.63
		c-4.6-7.26-9.67-5.51-10.26-5.63l-0.12,0.11c-0.03,0.49,0.96,2.6,2.11,6.02c0.3,0.88,0.6,1.82,0.91,2.87
		c1.7,5.88,0.23,12.72,0.23,12.72c2.66-0.25,3.88-2.34,4.41-4.69c0.15-0.67,0.25-1.36,0.31-2.04c0.21-2.63-0.17-5.03-0.17-5.03
		s1.67,3.22,4.58,6c1.63,1.55,3.64,2.98,5.98,3.6C86.34-245.34,85.68-248.16,80.98-256.18z M127.34-114.09
		c10.41-0.59,5.75,6.93,31.09-8.14c7.17-4.27,12.27-9.27,15.98-14.27c9.71-13.1,9.52-26.22,9.52-26.22s-0.58,2.53-2.36,6.14
		c-1.58,3.2-4.13,7.24-8.12,11.21c-4.62,4.6-11.14,9.06-20.38,11.85c-26.19,7.91-26.47,19.48-26.47,19.48
		C126.86-114.08,127.08-114.08,127.34-114.09z M82.04,26.99c0.37-1.69,1.14-6.63,1.04-10.35c-1.94-0.42-3.89-0.88-5.85-1.3
		c-1.46,2.11-1.36,4.8-2.1,7.18C77.69,23.04,79.58,26.31,82.04,26.99z M84.88-9.56C67.02-9.56,58.45,2.1,56.73,7.91
		c2.21,8.68,10.04,11.77,10.04,11.77s-1.83-6.27,3.74-15.69c5.22-8.83,21.81-9.87,28.67,0.07c6.86,9.94,5.8,17.75,1.47,22.08
		c8.93-3.56,13.45-10.99,14.54-15.45C112.34,4.29,103.04-9.56,84.88-9.56z M130.75-248.39c-2.05-1.77-2.68,0.77-2.32,5.5
		c-4.29-2.35-2.89-6.2-5.52-8.82c-1.54-1.54-8.56,7.02-8.56,7.02s0,0-3.73-6.22c-3.73-6.22-10.47-5.09-10.47-5.09
		c0.49,2.89-3.94,5.17-2.01,6.91c-5.02-3.29-5.3-7.78-5.3-7.78s-1.3,1.88-1.2,6.13c0.03,1.31,0.18,2.83,0.55,4.6
		c1.44,6.83,5.64,11.09,8.57,13.32c0.56,0.42,1.06,0.77,1.5,1.05c0.93,0.59,1.52,0.88,1.52,0.88c-1.47-2.55-2.12-4.87-2.29-6.92
		c-0.23-2.82,0.48-5.11,1.34-6.79c1.07-2.1,2.37-3.25,2.37-3.25s0.17,2.17,1.05,5.13c0.24,0.82,0.53,1.69,0.9,2.61
		c1.31,3.32,3.5,7.06,7.09,9.87c0.76,0.59,1.59,1.13,2.47,1.62c0.37,0.21,0.72,0.43,1.11,0.61c-1.72-1.72-2.36-5.09-1.47-9.01
		c0.01-0.05,0.03-0.1,0.04-0.15c0.48-2.06,1.36-4.26,2.78-6.46c1.06,0.99,0.92,3.65,2.01,8.74c-0.01,0.11-0.02,0.22-0.03,0.32
		l0.13,0.07c0.31,1.39,0.69,2.91,1.23,4.68c1.74,5.65,5.87,9.38,8.49,11.28c1.34,0.97,2.31,1.49,2.31,1.49s0.37-2.62-1.25-7.63
		c-0.17-0.53-0.35-1.07-0.57-1.66c-0.39-1.04-0.61-2.02-0.76-2.98c-0.28-1.77-0.23-3.4,0.04-4.9c0.44-2.45,1.38-4.59,2.07-6.52
		C134.18-244.45,132.8-246.61,130.75-248.39z M150.11-228.64c-0.72-9.51-4.8-5.85-5.92-17.03c-2.08,0.86-3.5,1.78-4.25,3.1
		c-0.41,0.72-0.58,1.59-0.57,2.61c0.01,1.99,0.78,4.64,2.43,8.44c0.22,0.5,0.33,0.93,0.5,1.41c1.21,3.31,1.39,5.88,1.12,7.77
		c-0.23,1.62-0.73,2.79-1.14,3.46c-0.04,0.06-0.06,0.09-0.1,0.14c-0.26,0.39-0.46,0.62-0.46,0.62s0.15-0.02,0.41-0.07
		c0.52-0.1,1.48-0.33,2.56-0.81c0.74-0.33,1.54-0.78,2.29-1.39c0.21-0.17,0.42-0.37,0.62-0.57c0.14-0.14,0.27-0.29,0.41-0.44
		c1.2-1.37,2.09-3.3,2.13-6.02C150.13-227.82,150.14-228.21,150.11-228.64z M147.75-210.5c0.07-4.36,0.26-8.82,0.26-8.82
		c0.02,0.27-7.89,8.79-7.15,15.17c0.02,0.15,0.07,0.23,0.1,0.37c0.72,4.37,4.26,4.31,5.95,2.03c0.57-0.77,0.92-1.77,0.88-2.93
		c-0.01-0.17-0.01-0.37-0.02-0.55C147.71-206.72,147.72-208.6,147.75-210.5z M125.82-146.59l-0.25,3.61l-0.74,10.87
		c0,0,20.42,1.63,28.05-33.03c0.46-2.08,0.88-4.27,1.24-6.62C141.79-148.2,125.82-146.59,125.82-146.59z M162.77-238.53
		c0,0,0.43,2.99-1.48,9.89c-0.28,1.02-0.64,2.14-1.03,3.34c-0.38,1.14-0.81,2.36-1.31,3.66c-0.27,0.71-0.54,1.42-0.85,2.19
		c-0.14,0.33-0.23,0.61-0.37,0.96c-0.5,1.21-0.91,2.29-1.28,3.32c-1.49,4.16-1.97,6.94-1.96,8.77c0.01,1.99,0.55,2.88,0.95,3.26
		c0.22,0.21,0.39,0.27,0.39,0.27c0.05-0.37,0.13-0.69,0.2-1.02c1.11-5.28,4.98-6.19,6.81-8.41c2.35-2.85,2.97-4.21,3.55-8.62
		C168.03-233.33,162.77-238.53,162.77-238.53z M189.39-222.97c-0.64-0.36-1.13-0.28-1.13-0.28s-2.13,13.54-3.79,21.18
		c-0.16-0.15-0.27-0.29-0.41-0.44c-4.65-4.94,1.17-10.76-8.04-19.38c0.74,4.58-0.86,10.49-2.97,15.81
		c-2.82,7.09-6.56,13.11-6.93,13.48c0,0,0.26,0.44,0.9,0.91c0.86,0.63,2.42,1.33,5.18,1.14c0.01,0,0.01,0,0.02,0
		c0.61-0.04,1.17-0.21,1.67-0.46c3.52-1.76,4.66-7.84,4.66-7.84s0.43,0.47,0.79,2.01c0.3,1.28,0.57,3.29,0.51,6.5
		c-0.13,7.08,2.21,8.56,2.21,8.56s4.93-1.67,7.94-10.15c0.44-1.25,0.84-2.65,1.18-4.21c0.31-1.42,0.57-2.95,0.76-4.66
		C193.78-217.96,191.06-222.02,189.39-222.97z M119.68,212.78c0,0-0.03-0.33-0.06-0.79C119.71,212.48,119.68,212.78,119.68,212.78z
		 M315.84,129.58c0,0-3.12-3.76-9.97-8.02c-9.53-5.92-19.44-7.05-19.44-7.05s9.58-5.06,22.17,0.6
		c-9.46-17.06-29.51-15.79-31.91-15.53c-0.68,0.07,13.59-3.6,26.01,2.45c4.09,1.99,9.62,7.6,9.62,7.6l-5.56,0.36
		C318.14,115.19,315.84,129.58,315.84,129.58z M278.45,71.86c-0.1,0.01,10.74-6.28,22.38,0.27c14.91,8.4,17.3,16.35,17.3,16.35
		s-7.27-5.6-17.7-9.71C290.61,74.9,281.29,71.72,278.45,71.86z M304.38,43.36c-7.76,2.89-13.25,1.46-13.25,1.46s6.52-2,11.73-6.63
		c5.21-4.64,7.1-10.05,7.1-10.05S313.19,40.08,304.38,43.36z M297.28,17.86c0,0,3.63-6.13,5.65-13.17
		c2.02-7.03,3.34-12.19,3.34-12.19c0.33-1.46,7.28,2.96,2.32,12.58C305.54,11,297.28,17.86,297.28,17.86z M-301.72,9.76
		c-4.61,1.09-10.52-0.25-15.25-1.84c-0.91-0.33-1.87-0.88-2.75-1.59c-1.68-1.36-3.04-3.37-3.07-5.87c-0.02-2.09-1.19-4.65-1.19-4.65
		s4.74,1.09,6.78,3.28C-309.15,7.74-301.72,9.76-301.72,9.76z M-311.03-51.98c0.57,2.46,1.24,4.69,1.88,6.57
		c0.51,2.27,0.94,3.31,1.29,3.46c0.68,1.66,1.16,2.63,1.16,2.63s-12.59-3.45-13.82-21.71C-317.63-61.65-313.94-59.91-311.03-51.98z
		 M-301.94,109.08c2.14-1.1,6.58-1.2,11.09-0.93c1.6,0.1,3.21,0.24,4.72,0.4c4.42,0.77,7.03,0.95,7.03,0.95s-0.21,0.19-0.64,0.52
		c-1.37,1.04-5.08,3.51-12.09,5.97c-3.72,1.3-7.75,1.98-11.29,2.32c-5.29,0.33-8.18,0.93-12.41-5.16l-1.74-3.86
		C-317.27,109.3-310.76,113.64-301.94,109.08z M321.89,153.93c-2.69-10.23-9.98-15.22-9.98-15.22s3.73-3.59,11.9,4.66
		C322.89,145.14,321.89,153.93,321.89,153.93z M-303.25-74.14L-303.25-74.14c0.13,4.19,0.47,6.88,0.47,6.88s-2.13-0.98-6.56-8.33
		c-4.26-6.79-1.48-13.01-6.85-18.38c0,0,2.72,0.01,5.46,0.73c0.23,0.09,0.47,0.16,0.71,0.2c0.78,0.24,1.53,0.56,2.21,0.95
		c3.5,2.64,4.34,9.97,4.51,15.3C-303.29-75.86-303.28-74.97-303.25-74.14z M-303.47,129.85c2.97,1.9,5.29,1.2,5.29,1.2
		s-12.48,5.2-15.71,13.58C-314.91,138.18-306.44,127.95-303.47,129.85z M-236.37-177.66c0.47,12.4,3.64,23.54,6.16,29.15
		c0,0-7.58-4.13-12.31-23.33c-6.7-27.21,3.56-32.87,7.92-34.82c1.34-0.6,1.51,0.37,1.18,1.18
		C-236.92-197.11-236.45-179.79-236.37-177.66z M234.52-146.31c-0.87-18.87-8.82-40.61-5.3-54.89c3.75,12.84,9.15,12.72,11.92,22.7
		c1.3,4.69,1.6,11.52-0.52,18.77C238.9-153.9,235.99-148.2,234.52-146.31z M-258.85-170.85c-8.14,12.07-2.64,31.67-2.64,31.67
		s-3.14-1.27-6.59-4.55c-3.71-3.53-9.35-11.01-11.65-17.06c-2.88-7.61-0.52-12.56-0.52-12.56s7.33,15.01,14.37,12.73
		c-0.17-5.25-0.45-11.77,2.9-16.39c3.35-4.63,9.94-5.41,9.94-5.44c-0.72,11.28,3.11,24.38,3.11,24.38S-253.64-157.67-258.85-170.85z
		 M-285.36-97.32c0,0-7.85-3.95-11.06-18.14c-1.77,3.69-3.1,7.63-4.1,11.6c-2.53-2.5-3.1-6.27-2.74-10.13
		c0.74-4.06,1.69-7.98,2.91-10.94l1.53-3.68c0,0,0.45-0.45,3.22-6.23v0c0,0,5.88,14.4,7.51,23.9
		C-287.09-103.12-285.36-97.32-285.36-97.32z M-286.4-136.39c-0.47,1.28-0.84,2.32-1.16,3.67c0,0,0,0,0,0
		c-3.74-3.14-4.12-11.28-3.24-19.36c0,0,0,0,0,0c0.73-5.1,4.06-10.53,4.06-10.53s3.88,27.77,11.51,43.8
		C-276.56-118.81-282.26-121.81-286.4-136.39z M-293.22,237.17c0.95-1.62,3.73,0.72,5.63,2.06c4.03,2.84,8.16,7.19,13.7,10.35
		C-291.99,244.16-293.22,240.15-293.22,237.17z"/>
</symbol>
<symbol  id="Nouveau_symbole_5" viewBox="-340.79 -85.9 681.59 171.8">
	<g>
		<path class="st0" d="M-152.47-70.31l8.42-7.48c-0.13-0.21-0.33-0.5-0.62-0.87c-0.29-0.37-0.97-1.03-2.03-1.96
			c-1.06-0.94-2.22-1.76-3.49-2.46c-1.27-0.71-2.95-1.35-5.05-1.93c-2.1-0.58-4.31-0.87-6.64-0.87c-6.57,0-12.03,2.13-16.37,6.39
			c-4.34,4.26-6.52,9.55-6.52,15.87c0,6.32,2.23,11.67,6.7,16.06c4.47,4.39,9.99,6.58,16.56,6.58c2.24,0,4.36-0.25,6.36-0.75
			c1.99-0.5,3.63-1.1,4.9-1.81c1.27-0.71,2.37-1.42,3.3-2.15c0.94-0.73,1.59-1.34,1.96-1.84l0.62-0.75l-8.79-7.61
			c-0.08,0.12-0.19,0.27-0.31,0.44c-0.12,0.17-0.44,0.48-0.93,0.94c-0.5,0.46-1.05,0.86-1.65,1.22c-0.6,0.35-1.41,0.68-2.43,0.97
			c-1.02,0.29-2.09,0.44-3.21,0.44c-3.24,0-5.92-1.1-8.04-3.31c-2.12-2.2-3.18-4.95-3.18-8.23c0-3.29,1.06-6.03,3.18-8.23
			c2.12-2.2,4.8-3.31,8.04-3.31c1.21,0,2.35,0.16,3.43,0.47c1.08,0.31,1.95,0.7,2.62,1.15c0.66,0.46,1.25,0.93,1.75,1.4
			c0.5,0.48,0.85,0.86,1.06,1.15L-152.47-70.31z"/>
		<path class="st0" d="M-107.57-41.62l17.15-43.65h-13.1l-2.56,7.48h-15.47l-2.56-7.48h-12.47l17.15,43.65H-107.57z M-109.32-68.44
			l-4.49,13.16l-4.55-13.16H-109.32z"/>
		<path class="st0" d="M-50.51-70h-17.46v-15.28h-11.85v43.65h32.43v-10.29h-20.58v-8.11h17.46V-70z"/>
		<path class="st0" d="M-1.87-85.28h-33.68v43.65H-2.5v-10.29h-21.2v-6.24h18.09v-9.67H-23.7v-7.17h21.83V-85.28z M-23.08-38.5
			l3.74,10.6h11.85l-6.86-10.6H-23.08z"/>
		<path class="st0" d="M22.45-73.24c0,2.54,0.65,4.83,1.96,6.89c1.31,2.06,3.48,4,6.52,5.83c-2.54,3.12-3.8,6.09-3.8,8.92
			c0,2.95,1.2,5.46,3.62,7.52c2.41,2.06,5.63,3.09,9.67,3.09c4.07,0,7.24-1.04,9.51-3.12c2.27-2.08,3.4-4.53,3.4-7.36
			c0-4.11-2.5-7.74-7.49-10.88l4.17-4.48l5.91,6.5h11.23L56.22-73.51l10.95-11.76H54.57l-4.7,4.9c-2.13-2.09-4.18-3.54-6.16-4.33
			c-1.98-0.79-4.33-1.19-7.04-1.19c-3.83,0-7.15,1.22-9.98,3.65C23.86-79.82,22.45-76.82,22.45-73.24z M37.92-76.55
			c1.92,0,3.82,0.9,5.7,2.69l-6.94,7.24c-2.42-1.71-3.63-3.5-3.63-5.37c0-1.33,0.46-2.42,1.37-3.28
			C35.34-76.12,36.5-76.55,37.92-76.55z M37.42-51.97c0-1.16,0.91-2.74,2.74-4.74c2.54,1.29,3.8,2.78,3.8,4.49
			c0,0.87-0.29,1.61-0.87,2.21c-0.58,0.6-1.39,0.9-2.43,0.9c-0.96,0-1.74-0.29-2.34-0.87C37.72-50.56,37.42-51.23,37.42-51.97z"/>
		<path class="st0" d="M122.1-70.31l8.42-7.48c-0.12-0.21-0.33-0.5-0.62-0.87c-0.29-0.37-0.97-1.03-2.03-1.96
			c-1.06-0.94-2.22-1.76-3.49-2.46c-1.27-0.71-2.95-1.35-5.05-1.93c-2.1-0.58-4.31-0.87-6.64-0.87c-6.57,0-12.03,2.13-16.37,6.39
			c-4.35,4.26-6.52,9.55-6.52,15.87c0,6.32,2.23,11.67,6.7,16.06c4.47,4.39,9.99,6.58,16.56,6.58c2.24,0,4.37-0.25,6.36-0.75
			s3.63-1.1,4.9-1.81c1.27-0.71,2.37-1.42,3.31-2.15c0.94-0.73,1.59-1.34,1.96-1.84l0.62-0.75l-8.79-7.61
			c-0.08,0.12-0.19,0.27-0.31,0.44c-0.12,0.17-0.44,0.48-0.94,0.94c-0.5,0.46-1.05,0.86-1.65,1.22c-0.6,0.35-1.41,0.68-2.43,0.97
			c-1.02,0.29-2.09,0.44-3.21,0.44c-3.24,0-5.92-1.1-8.04-3.31c-2.12-2.2-3.18-4.95-3.18-8.23c0-3.29,1.06-6.03,3.18-8.23
			c2.12-2.2,4.8-3.31,8.04-3.31c1.21,0,2.35,0.16,3.43,0.47c1.08,0.31,1.95,0.7,2.62,1.15c0.66,0.46,1.25,0.93,1.75,1.4
			c0.5,0.48,0.85,0.86,1.06,1.15L122.1-70.31z"/>
		<path class="st0" d="M145.15-79.51c-4.35,4.26-6.52,9.55-6.52,15.87c0,6.32,2.23,11.67,6.7,16.06c4.47,4.39,9.99,6.58,16.56,6.58
			c6.57,0,12.03-2.13,16.37-6.39c4.34-4.26,6.52-9.55,6.52-15.87c0-6.32-2.24-11.67-6.7-16.06c-4.47-4.39-9.99-6.58-16.56-6.58
			C154.95-85.9,149.49-83.77,145.15-79.51z M153.66-55.22c-2.12-2.2-3.18-4.95-3.18-8.23c0-3.29,1.06-6.03,3.18-8.23
			c2.12-2.2,4.8-3.31,8.04-3.31c3.24,0,5.92,1.1,8.05,3.31c2.12,2.2,3.18,4.95,3.18,8.23c0,3.28-1.06,6.03-3.18,8.23
			c-2.12,2.2-4.8,3.31-8.05,3.31C158.46-51.91,155.78-53.01,153.66-55.22z"/>
	</g>
	<g>
		<path class="st0" d="M-301.78,60.6c19.97,0,30.49-11.05,30.49-20.37c0-7.46-5.59-13.18-13.05-13.18
			c-14.38,0-7.72,16.51-18.24,16.51c-5.86,0-9.05-5.99-9.05-11.32c0-9.85,7.32-19.84,17.84-19.84c8.39,0,11.18,3.46,13.98,3.46
			c3.59,0,5.99-3.99,5.99-7.19c0-7.86-11.98-17.97-30.62-17.97c-20.11,0-36.35,14.78-36.35,35.15
			C-340.79,45.02-324.15,60.6-301.78,60.6z"/>
		<path class="st0" d="M-265.9,23.32c0,23.83,20.9,37.28,42.87,37.28c23.3,0,36.62-18.24,36.62-34.75
			c0-21.84-23.43-35.15-43.01-35.15C-249.12-9.3-265.9,2.28-265.9,23.32z M-228.75,44.89c-4.39,0-6.79-4.13-6.52-7.99
			c0.53-8.39,2.93-28.89,12.12-29.43c5.06-0.27,6.12,3.99,6.12,8.26C-217.03,21.72-219.7,44.89-228.75,44.89z"/>
		<path class="st0" d="M-145.46,16.4c0-2.4-0.13-6.79,0.53-8.92c1.46-4.79,7.46-2.53,7.46-8.12c0-8.92-16.24-8.26-21.97-8.26
			c-5.99,0-24.63-0.67-24.63,8.79c0,4.66,5.73,2.93,7.32,7.86c1.73,5.46,1.73,22.1,1.73,28.63c0,5.19,0.27,15.18-0.93,21.17
			c-2,9.85-9.85,6.39-9.85,13.98c0,11.58,34.62,14.38,36.48,14.38c4.53,0,5.59-2.93,5.59-6.92c0-3.06-1.73-17.71-1.73-36.75V16.4z"
			/>
		<path class="st0" d="M-99.04,21.32c0-5.33,0.4-13.58,7.59-13.58c9.59,0,8.26,12.52,8.26,18.91c0,4.39,0.13,10.12-0.53,14.38
			c-1.06,6.66-7.59,4.39-7.59,9.99c0,7.86,26.76,9.19,31.82,9.19c4.79,0,6.79-2.8,6.79-7.46c0-4.26-0.27-8.39-0.27-12.65V13.33
			c0-7.99,7.32-4.26,7.32-10.65c0-9.05-23.57-11.58-30.89-11.58c-10.25,0-3.46,7.99-8.79,7.99c-1.46,0-3.6-2-6.79-3.99
			c-3.2-2-7.46-3.99-13.32-3.99c-25.3,0-23.17,19.97-23.17,39.94c0,20.37-9.19,11.45-9.19,20.24c0,8.52,33.55,8.92,34.62,8.92
			c3.73,0,4.13-1.73,4.13-5.06V21.32z"/>
		<path class="st0" d="M-32.73,29.71c0,16.91-6.66,10.25-6.66,16.91c0,9.85,33.02,13.58,33.29,13.58c3.33,0,3.6-2.93,3.6-5.73
			c0-1.6-0.53-6.12,2.26-6.12c1.33,0,3.46,2.93,7.19,5.99c3.73,2.93,9.05,5.86,16.91,5.86c15.84,0,15.98-11.85,18.77-11.85
			c1.06,0,3.46,2.93,7.32,5.99c3.99,2.93,9.32,5.86,16.11,5.86c12.65,0,20.5-6.92,20.5-19.97V12.14c0-7.72,4.93-8.39,4.93-12.25
			c0-8.39-15.18-8.79-20.37-8.79c-4.39,0-19.84,0.93-19.84,7.86c0,4.93,4.66,4.79,4.66,12.52v11.98c0,5.59,0.67,16.78-6.92,16.78
			c-7.46,0-6.79-9.05-6.79-13.98v-8.26c0-16.38,4.79-13.58,4.79-18.51c0-8.26-15.98-8.39-20.77-8.39C6.15-8.9,5.08-5.17,5.21-1.45
			C5.35,5.61,12,0.02,11.6,15.86v7.59c0,4.79,0.67,16.78-6.92,16.78c-7.46,0-6.79-9.05-6.79-13.98V15.46
			c0-12.25,3.6-11.45,3.6-16.24c0-3.46-3.06-8.12-21.3-8.12c-5.19,0-20.9-0.13-20.9,6.92c0,5.99,7.99,2.8,7.99,19.44V29.71z"/>
		<path class="st0" d="M132.69,54.48c0-0.67-0.13-2.13,0.93-2.13c0.67,0,2.8,2.13,6.26,4.13c3.46,2.13,8.12,4.13,13.98,4.13
			c14.11,0,26.1-11.85,26.1-29.43c0-22.77-17.04-40.48-39.94-40.48c-16.78,0-24.63,8.65-26.76,8.65c-2.13,0-4.26-2-8.65-2
			c-1.86,0-3.99,0.53-3.99,2.66c0,2.13,2.66,6.39,2.66,23.7v35.42c0,7.72-9.99,4.26-9.99,11.85c0,8.92,25.83,14.91,36.88,14.91
			c3.59,0,3.46-2.8,3.33-5.72L132.69,54.48z M139.48,40.1c-5.86,0-6.52-4.79-6.52-9.32c0-25.83,1.46-27.96,6.79-27.96
			c8.79,0,10.25,9.99,10.25,16.78C150,25.85,148.26,40.1,139.48,40.1z"/>
		<path class="st0" d="M222.14,21.32c0-5.33,0.4-13.58,7.59-13.58c9.59,0,8.26,12.52,8.26,18.91c0,4.39,0.13,10.12-0.53,14.38
			c-1.06,6.66-7.59,4.39-7.59,9.99c0,7.86,26.76,9.19,31.82,9.19c4.79,0,6.79-2.8,6.79-7.46c0-4.26-0.27-8.39-0.27-12.65V13.33
			c0-7.99,7.32-4.26,7.32-10.65c0-9.05-23.57-11.58-30.89-11.58c-10.25,0-3.46,7.99-8.79,7.99c-1.46,0-3.6-2-6.79-3.99
			c-3.2-2-7.46-3.99-13.32-3.99c-25.3,0-23.17,19.97-23.17,39.94c0,20.37-9.19,11.45-9.19,20.24c0,8.52,33.55,8.92,34.62,8.92
			c3.73,0,4.13-1.73,4.13-5.06V21.32z"/>
		<path class="st0" d="M315.63,59.8c2.4-0.53,4.53-0.93,5.46-0.93c1.33,0,2.4,0.4,3.6,0.93c1.2,0.4,2.4,0.8,3.59,0.8
			c6.12,0,12.25-12.25,12.25-17.71c0-3.6-3.06-6.26-6.52-6.26c-7.59,0-11.85,10.52-17.71,10.52c-2.4,0-4.79-2-4.79-4.53
			c0-8.52,29.29-10.12,29.29-30.76c0-12.52-12.12-21.17-25.96-21.17c-2.66,0-6.52,0.4-9.85,0.93c-3.33,0.4-6.26,0.8-7.06,0.8
			c-0.93,0-1.73-0.13-2.66-0.27c-0.8-0.13-1.6-0.27-2.53-0.27c-2.66,0-3.99,0.4-5.86,2.53c-3.33,3.73-6.66,11.32-6.66,16.38
			c0,3.46,1.2,6.26,5.06,6.26c5.86,0,11.18-13.18,18.64-13.18c2.66,0,5.19,1.33,5.19,4.26c0,7.86-26.1,8.79-26.1,30.76
			c0,13.31,10.92,21.7,24.63,21.7C310.3,60.6,313.1,60.2,315.63,59.8z"/>
	</g>
</symbol>
<use xlink:href="#Nouveau_symbole"  width="648.85" height="572.45" id="XMLID_20_" x="-323.97" y="-286.15" transform="matrix(0.7156 0 0 -0.7156 236.8751 204.8754)" style="overflow:visible;"/>
<use xlink:href="#Nouveau_symbole_5"  width="681.59" height="171.8" id="XMLID_18_" x="-340.79" y="-85.9" transform="matrix(0.6902 0 0 -0.6902 235.2146 486.6035)" style="overflow:visible;"/>
</svg>
